# xmcd CD database file
# Copyright (C) 1993-1998 Ti Kan
# 
# Track frame offsets:
#     150
#     15125
#     43835
#     71845
#     100435
#     128980
# 
# Disc length: 2008 seconds
# 
# Revision: 1
# Processed by: cddbd v1.4b41PL1 Copyright (c) Steve Scherf et al.
# Submitted via: DiscPlay 4.0.4
# 
DISCID=4d07d606
DTITLE=Moby - Honey Promo
DYEAR=1900
DGENRE=
TTITLE0=Honey
TTITLE1=Honey - The Aphrodite and Mickey Finn Mix
TTITLE2=Honey - RJ's Mix
TTITLE3=Honey - Bammer's Mix
TTITLE4=Honey - Westbam and Hardy Hard Mix
TTITLE5=Honey - 118 Mix
EXTD=
EXTT0=
EXTT1=
EXTT2=
EXTT3=
EXTT4=
EXTT5=
PLAYORDER=
